<?xml version="1.0" standalone="no"?>
<!DOCTYPE svg PUBLIC "-//W3C//DTD SVG 20010904//EN"
 "http://www.w3.org/TR/2001/REC-SVG-20010904/DTD/svg10.dtd">
<svg version="1.0" xmlns="http://www.w3.org/2000/svg"
 width="717.000000pt" height="270.000000pt" viewBox="0 0 717.000000 270.000000"
 preserveAspectRatio="xMidYMid meet">

<g transform="translate(0.000000,270.000000) scale(0.100000,-0.100000)"
fill="#000000" stroke="none">
<path d="M3484 2382 c-39 -25 -36 -90 5 -111 31 -17 50 -13 77 15 42 41 15
104 -45 104 -14 0 -31 -4 -37 -8z"/>
<path d="M3196 2365 c-15 -39 -5 -131 18 -180 43 -91 196 -212 196 -155 0 5
-24 25 -54 45 -94 62 -140 148 -134 249 3 49 -13 74 -26 41z"/>
<path d="M3318 2375 c-5 -5 26 -195 37 -222 3 -8 25 -13 60 -13 54 0 55 0 55
-30 l0 -30 100 0 100 0 0 37 c0 34 9 47 93 131 l92 93 -25 19 c-14 11 -32 20
-40 20 -9 0 -49 -34 -90 -75 l-75 -76 -105 3 -105 3 -7 50 c-15 95 -15 95 -52
95 -18 0 -35 -2 -38 -5z"/>
<path d="M3465 2049 c-11 -16 14 -29 58 -29 l37 0 0 -200 c0 -171 2 -200 15
-200 13 0 15 29 15 199 l0 200 48 3 c34 2 47 7 47 18 0 12 -20 16 -107 18 -72
2 -109 -1 -113 -9z"/>
<path d="M3360 1978 c1 -7 23 -69 49 -138 44 -115 50 -125 76 -128 15 -2 31 0
36 5 5 5 -1 46 -15 95 l-24 86 24 6 c20 5 24 13 24 46 l0 40 -85 0 c-62 0 -85
-3 -85 -12z"/>
<path d="M3627 1984 c-4 -4 -7 -27 -7 -52 0 -37 12 -66 71 -169 70 -123 72
-125 102 -119 16 3 33 6 38 6 20 0 4 43 -69 185 -66 129 -81 150 -102 153 -14
2 -29 0 -33 -4z"/>
<path d="M360 1670 l0 -30 1255 0 1255 0 0 30 0 30 -1255 0 -1255 0 0 -30z"/>
<path d="M4168 1695 c-3 -3 -3 -17 0 -30 l4 -25 1254 0 1254 0 0 30 0 30
-1253 0 c-690 0 -1256 -2 -1259 -5z"/>
<path d="M360 1535 l0 -35 1255 0 1255 0 0 35 0 35 -1255 0 -1255 0 0 -35z"/>
<path d="M4170 1535 l0 -35 1255 0 1255 0 0 35 0 35 -1255 0 -1255 0 0 -35z"/>
<path d="M1330 1271 c0 -37 2 -40 33 -43 32 -3 32 -3 35 -63 l3 -60 -59 3
c-78 5 -130 -10 -179 -52 -121 -104 -122 -360 -1 -449 29 -22 108 -33 162 -23
19 4 49 20 66 37 l30 31 0 -31 0 -31 80 0 80 0 0 40 c0 36 -3 40 -24 40 -13 0
-27 7 -30 16 -3 9 -6 153 -6 320 l0 304 -95 0 -95 0 0 -39z m58 -257 c9 -2 12
-42 12 -152 0 -147 0 -149 -26 -173 -20 -18 -36 -24 -69 -23 -75 2 -105 48
-105 161 0 87 13 133 47 165 37 35 79 41 141 22z"/>
<path d="M530 1220 c0 -38 2 -40 30 -40 17 0 30 -1 30 -3 0 -7 -149 -436 -164
-471 -12 -28 -21 -36 -40 -36 -24 0 -26 -4 -26 -40 l0 -40 120 0 120 0 0 39
c0 35 -3 39 -31 45 -32 6 -32 8 -8 74 8 21 13 22 124 22 l116 0 15 -36 c19
-46 12 -64 -26 -64 -28 0 -30 -2 -30 -40 l0 -40 135 0 135 0 0 39 c0 36 -2 39
-33 45 l-33 6 -101 288 -101 287 -116 3 -116 3 0 -41z m201 -202 c23 -73 44
-139 46 -145 4 -10 -18 -13 -90 -13 l-94 0 46 145 c25 80 47 145 48 145 1 0
21 -60 44 -132z"/>
<path d="M5210 1221 c0 -33 4 -40 23 -43 l22 -3 3 -248 2 -247 -30 -6 c-27 -6
-30 -10 -30 -46 l0 -40 198 4 c193 3 198 4 249 31 39 20 58 38 74 68 22 45 27
126 10 171 -10 26 -60 69 -94 81 -16 6 -14 11 16 37 45 39 61 79 54 136 -6 58
-31 93 -87 122 -41 20 -57 22 -227 22 l-183 0 0 -39z m330 -64 c37 -19 52 -56
39 -100 -14 -52 -41 -67 -121 -67 l-68 0 0 90 0 90 63 0 c34 0 73 -6 87 -13z
m30 -282 c31 -16 44 -43 42 -93 -3 -72 -48 -102 -157 -102 l-65 0 0 111 0 112
75 -6 c42 -4 89 -14 105 -22z"/>
<path d="M3370 1171 c-20 -40 -63 -81 -85 -81 -13 0 -25 -30 -25 -62 0 -14 8
-18 35 -18 l35 0 1 -162 c0 -185 9 -223 56 -251 57 -33 223 -19 223 18 0 8 -5
25 -11 39 -11 22 -15 24 -64 19 -79 -8 -85 5 -85 189 l0 147 63 3 62 3 6 43 5
42 -68 0 -68 0 0 55 c0 54 0 55 -30 55 -24 0 -33 -7 -50 -39z"/>
<path d="M6434 1178 c-22 -45 -64 -88 -85 -88 -16 0 -29 -27 -29 -62 0 -14 8
-18 35 -18 l35 0 0 -157 c0 -189 8 -224 55 -253 59 -37 225 -25 225 16 0 7 -5
25 -10 39 -8 21 -14 25 -32 19 -41 -13 -82 -6 -100 17 -15 18 -18 43 -18 170
l0 149 60 0 c64 0 64 0 74 58 l6 32 -70 0 -70 0 0 55 c0 54 0 55 -30 55 -23 0
-33 -7 -46 -32z"/>
<path d="M2354 1086 c-88 -41 -136 -131 -136 -256 0 -168 74 -249 227 -250 80
0 133 12 165 38 22 18 22 19 5 53 -10 19 -18 35 -19 36 -2 2 -20 -6 -41 -17
-42 -21 -108 -26 -148 -11 -26 10 -53 46 -63 85 -6 24 -4 26 24 26 47 0 133
20 174 41 106 54 117 209 18 261 -51 27 -142 24 -206 -6z m146 -76 c25 -25 25
-50 0 -82 -22 -29 -58 -44 -117 -51 -39 -5 -43 -3 -43 17 0 12 10 42 23 66 33
68 97 90 137 50z"/>
<path d="M2950 1095 c-19 -9 -45 -26 -57 -37 l-23 -21 0 31 0 32 -85 0 -85 0
0 -39 c0 -36 3 -40 30 -46 l30 -7 0 -164 0 -165 -30 -10 c-25 -9 -30 -16 -30
-45 l0 -34 120 0 120 0 0 39 c0 36 -3 40 -27 43 l-28 3 -3 100 c-4 138 4 182
38 217 22 21 38 28 67 28 74 0 78 -8 81 -184 l3 -157 -30 -10 c-26 -9 -31 -16
-31 -45 l0 -34 120 0 120 0 0 39 c0 36 -3 40 -27 43 l-28 3 -5 175 c-5 185 -8
197 -58 235 -35 26 -134 31 -182 10z"/>
<path d="M4470 1089 c-19 -11 -43 -31 -52 -42 -17 -22 -18 -22 -18 16 l0 37
-85 0 -85 0 0 -40 c0 -36 3 -40 33 -48 l32 -8 3 -163 2 -162 -30 -10 c-25 -9
-30 -16 -30 -45 l0 -34 135 0 135 0 0 40 0 40 -45 0 -45 0 0 133 c0 114 3 136
20 164 19 32 52 48 87 41 13 -2 19 -14 21 -41 3 -30 7 -37 18 -33 9 3 29 6 45
6 l29 0 0 75 c0 63 -3 76 -19 85 -34 17 -113 12 -151 -11z"/>
<path d="M4872 1097 c-122 -45 -191 -212 -148 -360 32 -110 99 -156 226 -157
59 0 86 5 128 25 l53 24 -21 41 -20 40 -40 -20 c-73 -37 -156 -23 -190 32 -33
55 -28 64 39 71 147 16 223 75 224 176 1 90 -56 141 -158 140 -33 0 -75 -6
-93 -12z m105 -73 c29 -8 45 -54 29 -85 -14 -31 -69 -57 -126 -61 -45 -3 -45
-3 -41 27 4 41 25 79 57 104 28 22 44 25 81 15z"/>
<path d="M5978 1100 c-125 -37 -188 -169 -159 -330 23 -126 96 -192 214 -193
147 0 231 86 244 248 14 175 -71 286 -217 284 -30 0 -67 -4 -82 -9z m129 -95
c31 -21 47 -79 47 -165 0 -86 -23 -146 -66 -169 -35 -20 -94 -5 -120 30 -27
35 -41 150 -28 215 15 72 47 104 102 104 24 0 53 -7 65 -15z"/>
<path d="M1620 1060 c0 -32 4 -40 19 -40 10 0 23 -6 29 -12 5 -7 41 -103 80
-213 l70 -200 79 -3 79 -3 69 211 c65 203 69 211 97 217 25 5 28 10 28 44 l0
39 -110 0 -110 0 0 -40 c0 -36 3 -40 25 -40 14 0 25 -5 25 -11 0 -26 -95 -318
-101 -312 -8 9 -99 295 -99 312 0 6 14 11 30 11 28 0 30 2 30 40 l0 40 -120 0
-120 0 0 -40z"/>
<path d="M3632 1058 c2 -36 7 -44 25 -46 30 -4 32 -17 35 -197 3 -128 6 -154
22 -178 27 -40 66 -57 130 -57 66 0 102 12 139 48 l27 26 0 -32 0 -32 80 0 80
0 0 40 c0 36 -3 40 -24 40 -13 0 -27 7 -30 16 -3 9 -6 105 -6 215 l0 200 -87
-3 -88 -3 0 -40 c0 -36 3 -40 28 -43 l27 -3 0 -140 0 -141 -30 -29 c-26 -26
-36 -30 -77 -27 -69 4 -73 15 -73 241 l0 187 -91 0 -90 0 3 -42z"/>
</g>
</svg>
